<svg xmlns="http://www.w3.org/2000/svg" viewBox="0 0 128 128" role="img" aria-label="Galuh Adi Insani developer favicon">
  <defs>
    <linearGradient id="g" x1="18" y1="14" x2="110" y2="112" gradientUnits="userSpaceOnUse">
      <stop stop-color="#66e4ff"/>
      <stop offset="0.52" stop-color="#1ee69d"/>
      <stop offset="1" stop-color="#8b5cf6"/>
    </linearGradient>
    <filter id="s" x="-20%" y="-20%" width="140%" height="140%">
      <feDropShadow dx="0" dy="10" stdDeviation="10" flood-color="#000" flood-opacity=".45"/>
    </filter>
  </defs>
  <rect width="128" height="128" rx="30" fill="#07111f"/>
  <path d="M28 37h72a10 10 0 0 1 10 10v42a10 10 0 0 1-10 10H28a10 10 0 0 1-10-10V47a10 10 0 0 1 10-10Z" fill="#0d1728" stroke="url(#g)" stroke-width="4" filter="url(#s)"/>
  <circle cx="34" cy="51" r="4" fill="#66e4ff"/>
  <circle cx="48" cy="51" r="4" fill="#f9d461"/>
  <circle cx="62" cy="51" r="4" fill="#1ee69d"/>
  <path d="M45 72 34 81l11 9" fill="none" stroke="#66e4ff" stroke-width="7" stroke-linecap="round" stroke-linejoin="round"/>
  <path d="M83 72 94 81l-11 9" fill="none" stroke="#1ee69d" stroke-width="7" stroke-linecap="round" stroke-linejoin="round"/>
  <path d="M72 67 56 94" fill="none" stroke="#f6f8ff" stroke-width="7" stroke-linecap="round"/>
</svg>
