<svg xmlns="http://www.w3.org/2000/svg" viewBox="0 0 760 620" role="img" aria-labelledby="title desc">
  <title id="title">Dashboard nutrisi ruminansia</title>
  <desc id="desc">Dashboard dengan ringkasan nutrisi, biaya pakan, dan rekomendasi formulasi</desc>
  <defs>
    <linearGradient id="bg" x1="0" y1="0" x2="1" y2="1">
      <stop stop-color="#13263d"/><stop offset="1" stop-color="#091421"/>
    </linearGradient>
    <linearGradient id="accent" x1="0" y1="0" x2="1" y2="0">
      <stop stop-color="#89f7c6"/><stop offset="1" stop-color="#70a5ff"/>
    </linearGradient>
  </defs>
  <rect x="22" y="22" width="716" height="576" rx="42" fill="url(#bg)" stroke="#ffffff" stroke-opacity=".14"/>
  <rect x="54" y="52" width="652" height="52" rx="17" fill="#ffffff" fill-opacity=".07"/>
  <circle cx="82" cy="78" r="8" fill="#89f7c6"/>
  <text x="104" y="85" font-family="Arial, sans-serif" font-size="20" font-weight="700" fill="#f7fbff">Ruminant Nutrition OS</text>
  <rect x="54" y="132" width="196" height="160" rx="24" fill="#ffffff" fill-opacity=".06" stroke="#ffffff" stroke-opacity=".10"/>
  <text x="76" y="165" font-family="Arial, sans-serif" font-size="13" fill="#a9b8c8">NUTRITION SCORE</text>
  <circle cx="152" cy="220" r="44" fill="none" stroke="#ffffff" stroke-opacity=".12" stroke-width="14"/>
  <path d="M152 176a44 44 0 1 1-38 66" fill="none" stroke="url(#accent)" stroke-width="14" stroke-linecap="round"/>
  <text x="152" y="228" text-anchor="middle" font-family="Arial, sans-serif" font-size="26" font-weight="800" fill="#f7fbff">92%</text>
  <rect x="270" y="132" width="436" height="160" rx="24" fill="#ffffff" fill-opacity=".06" stroke="#ffffff" stroke-opacity=".10"/>
  <text x="292" y="165" font-family="Arial, sans-serif" font-size="13" fill="#a9b8c8">COST TREND</text>
  <path d="M298 252 C348 222, 380 238, 420 201 S505 183, 544 211 S618 218, 676 170" fill="none" stroke="#89f7c6" stroke-width="6" stroke-linecap="round"/>
  <path d="M298 255H680" stroke="#ffffff" stroke-opacity=".10"/>
  <rect x="54" y="316" width="424" height="238" rx="24" fill="#ffffff" fill-opacity=".06" stroke="#ffffff" stroke-opacity=".10"/>
  <text x="76" y="349" font-family="Arial, sans-serif" font-size="13" fill="#a9b8c8">FORMULATION BALANCE</text>
  <g fill="#70a5ff"><rect x="84" y="456" width="44" height="68" rx="10"/><rect x="146" y="422" width="44" height="102" rx="10"/><rect x="208" y="388" width="44" height="136" rx="10"/></g>
  <g fill="#89f7c6"><rect x="270" y="404" width="44" height="120" rx="10"/><rect x="332" y="370" width="44" height="154" rx="10"/><rect x="394" y="438" width="44" height="86" rx="10"/></g>
  <rect x="498" y="316" width="208" height="238" rx="24" fill="#ffffff" fill-opacity=".06" stroke="#ffffff" stroke-opacity=".10"/>
  <text x="520" y="349" font-family="Arial, sans-serif" font-size="13" fill="#a9b8c8">RECOMMENDATION</text>
  <rect x="520" y="374" width="164" height="42" rx="12" fill="#89f7c6" fill-opacity=".12"/>
  <circle cx="540" cy="395" r="6" fill="#89f7c6"/>
  <text x="554" y="400" font-family="Arial, sans-serif" font-size="13" fill="#dffdf0">Protein target met</text>
  <rect x="520" y="430" width="164" height="42" rx="12" fill="#70a5ff" fill-opacity=".12"/>
  <circle cx="540" cy="451" r="6" fill="#70a5ff"/>
  <text x="554" y="456" font-family="Arial, sans-serif" font-size="13" fill="#e0ebff">Cost optimized</text>
  <rect x="520" y="486" width="164" height="42" rx="12" fill="#f2c36b" fill-opacity=".12"/>
  <circle cx="540" cy="507" r="6" fill="#f2c36b"/>
  <text x="554" y="512" font-family="Arial, sans-serif" font-size="13" fill="#fff1cf">Mineral check</text>
</svg>
