<svg xmlns="http://www.w3.org/2000/svg" width="900" height="700" viewBox="0 0 900 700" role="img">
  <defs>
    <linearGradient id="bg" x1="0" y1="0" x2="1" y2="1"><stop offset="0" stop-color="#12233f"/><stop offset="1" stop-color="#0d6f52"/></linearGradient>
    <linearGradient id="accent" x1="0" y1="0" x2="1" y2="1"><stop offset="0" stop-color="#89f7c6"/><stop offset="1" stop-color="#70a5ff"/></linearGradient>
    <filter id="shadow" x="-20%" y="-20%" width="140%" height="140%"><feDropShadow dx="0" dy="24" stdDeviation="28" flood-color="#000" flood-opacity=".25"/></filter>
  </defs>
  <rect width="100%" height="100%" rx="42" fill="url(#bg)"/>
  <circle cx="144" cy="126" r="150" fill="#70a5ff" opacity=".18"/>
  <circle cx="756" cy="154" r="190" fill="#89f7c6" opacity=".16"/>
  <g filter="url(#shadow)">
  <rect x="86" y="86" width="728" height="500" rx="36" fill="rgba(255,255,255,.12)" stroke="rgba(255,255,255,.28)"/>
  <rect x="126" y="126" width="648" height="68" rx="22" fill="rgba(255,255,255,.11)"/>
  <circle cx="164" cy="160" r="12" fill="#ff6b6b"/><circle cx="202" cy="160" r="12" fill="#f7c948"/><circle cx="240" cy="160" r="12" fill="#89f7c6"/>
  <rect x="126" y="228" width="210" height="252" rx="28" fill="rgba(255,255,255,.10)"/>
  <rect x="370" y="228" width="404" height="116" rx="28" fill="rgba(255,255,255,.10)"/>
  <rect x="370" y="378" width="188" height="102" rx="28" fill="rgba(255,255,255,.10)"/>
  <rect x="586" y="378" width="188" height="102" rx="28" fill="rgba(255,255,255,.10)"/>
  <path d="M150 420 C190 318, 232 360, 302 276" fill="none" stroke="#89f7c6" stroke-width="13" stroke-linecap="round"/>
  <path d="M410 302h306" stroke="#70a5ff" stroke-width="16" stroke-linecap="round"/><path d="M410 262h194" stroke="#89f7c6" stroke-width="16" stroke-linecap="round"/>
  <rect x="416" y="418" width="96" height="18" rx="9" fill="#89f7c6"/><rect x="620" y="418" width="96" height="18" rx="9" fill="#70a5ff"/>
</g>
</svg>