<svg xmlns="http://www.w3.org/2000/svg" viewBox="0 0 920 560" role="img" aria-labelledby="title desc">
  <title id="title">ransumruminansia</title>
  <desc id="desc">Dashboard formulasi ransum ruminansia.</desc>
  <defs>
    <linearGradient id="bg" x1="0" y1="0" x2="920" y2="560" gradientUnits="userSpaceOnUse">
      <stop stop-color="#FFFFFF"/>
      <stop offset="1" stop-color="#F3F7FF"/>
    </linearGradient>
    <linearGradient id="accent" x1="0" y1="0" x2="1" y2="1">
      <stop stop-color="#30D158"/>
      <stop offset="1" stop-color="#0071E3"/>
    </linearGradient>
    <filter id="shadow" x="-12%" y="-12%" width="124%" height="136%">
      <feDropShadow dx="0" dy="24" stdDeviation="24" flood-color="#102033" flood-opacity="0.13"/>
    </filter>
  </defs>
  <rect width="920" height="560" rx="42" fill="url(#bg)"/>
  <circle cx="774" cy="94" r="170" fill="#30D158" opacity="0.14"/>
  <circle cx="134" cy="492" r="190" fill="#30D158" opacity="0.10"/>
  <g filter="url(#shadow)">
    <rect x="64" y="58" width="792" height="444" rx="36" fill="#fff" fill-opacity="0.82" stroke="#DFE6F1"/>
    <rect x="96" y="92" width="728" height="58" rx="24" fill="#F7F9FC" stroke="#E4EAF3"/>
    <circle cx="130" cy="121" r="8" fill="#FF5F57"/><circle cx="156" cy="121" r="8" fill="#FFBD2E"/><circle cx="182" cy="121" r="8" fill="#28C840"/>
    <text x="218" y="130" font-family="-apple-system, BlinkMacSystemFont, Segoe UI, sans-serif" font-size="22" font-weight="900" fill="#1D1D1F">ransumruminansia</text>
    
    <rect x="96" y="184" width="306" height="244" rx="30" fill="url(#accent)"/>
    <text x="126" y="244" font-family="-apple-system, BlinkMacSystemFont, Segoe UI, sans-serif" font-size="22" font-weight="800" fill="#EAF6FF">Nutrient target</text>
    <text x="126" y="326" font-family="-apple-system, BlinkMacSystemFont, Segoe UI, sans-serif" font-size="76" font-weight="900" fill="#fff">98.7%</text>
    <rect x="126" y="364" width="210" height="22" rx="11" fill="#fff" opacity="0.28"/>
    <rect x="126" y="364" width="182" height="22" rx="11" fill="#fff"/>
    <rect x="434" y="184" width="390" height="108" rx="28" fill="#F8FAFD" stroke="#E4EAF3"/>
    <text x="464" y="230" font-family="-apple-system, BlinkMacSystemFont, Segoe UI, sans-serif" font-size="20" font-weight="900" fill="#1D1D1F">Linear programming</text>
    <text x="464" y="264" font-family="-apple-system, BlinkMacSystemFont, Segoe UI, sans-serif" font-size="18" font-weight="700" fill="#6E6E73">Optimized ration and cost-aware output</text>
    <rect x="434" y="320" width="390" height="108" rx="28" fill="#F8FAFD" stroke="#E4EAF3"/>
    <text x="464" y="366" font-family="-apple-system, BlinkMacSystemFont, Segoe UI, sans-serif" font-size="20" font-weight="900" fill="#1D1D1F">Mineral deficiency check</text>
    <text x="464" y="400" font-family="-apple-system, BlinkMacSystemFont, Segoe UI, sans-serif" font-size="18" font-weight="700" fill="#6E6E73">Ca, P, protein, fiber, and energy balance</text>

  </g>
</svg>
