<svg xmlns="http://www.w3.org/2000/svg" width="900" height="700" viewBox="0 0 900 700" role="img">
  <defs>
    <linearGradient id="bg" x1="0" y1="0" x2="1" y2="1"><stop offset="0" stop-color="#12233f"/><stop offset="1" stop-color="#0d6f52"/></linearGradient>
    <linearGradient id="accent" x1="0" y1="0" x2="1" y2="1"><stop offset="0" stop-color="#89f7c6"/><stop offset="1" stop-color="#70a5ff"/></linearGradient>
    <filter id="shadow" x="-20%" y="-20%" width="140%" height="140%"><feDropShadow dx="0" dy="24" stdDeviation="28" flood-color="#000" flood-opacity=".25"/></filter>
  </defs>
  <rect width="100%" height="100%" rx="42" fill="url(#bg)"/>
  <circle cx="144" cy="126" r="150" fill="#70a5ff" opacity=".18"/>
  <circle cx="756" cy="154" r="190" fill="#89f7c6" opacity=".16"/>
  <g filter="url(#shadow)"><rect x="92" y="98" width="716" height="504" rx="42" fill="rgba(255,255,255,.12)" stroke="rgba(255,255,255,.24)"/><path d="M160 480h590" stroke="rgba(255,255,255,.38)" stroke-width="8" stroke-linecap="round"/><rect x="205" y="310" width="72" height="150" rx="18" fill="#89f7c6"/><rect x="345" y="250" width="72" height="210" rx="18" fill="#70a5ff"/><rect x="485" y="190" width="72" height="270" rx="18" fill="#89f7c6" opacity=".75"/><rect x="625" y="275" width="72" height="185" rx="18" fill="#70a5ff" opacity=".75"/><path d="M200 250c90-70 200-76 315-28 84 35 134 36 206 10" fill="none" stroke="rgba(255,255,255,.64)" stroke-width="12" stroke-linecap="round"/></g>
</svg>