<svg xmlns="http://www.w3.org/2000/svg" width="900" height="700" viewBox="0 0 900 700" role="img">
  <defs>
    <linearGradient id="bg" x1="0" y1="0" x2="1" y2="1"><stop offset="0" stop-color="#12233f"/><stop offset="1" stop-color="#0d6f52"/></linearGradient>
    <linearGradient id="accent" x1="0" y1="0" x2="1" y2="1"><stop offset="0" stop-color="#89f7c6"/><stop offset="1" stop-color="#70a5ff"/></linearGradient>
    <filter id="shadow" x="-20%" y="-20%" width="140%" height="140%"><feDropShadow dx="0" dy="24" stdDeviation="28" flood-color="#000" flood-opacity=".25"/></filter>
  </defs>
  <rect width="100%" height="100%" rx="42" fill="url(#bg)"/>
  <circle cx="144" cy="126" r="150" fill="#70a5ff" opacity=".18"/>
  <circle cx="756" cy="154" r="190" fill="#89f7c6" opacity=".16"/>
  <g filter="url(#shadow)"><rect x="92" y="98" width="716" height="504" rx="42" fill="rgba(255,255,255,.12)" stroke="rgba(255,255,255,.24)"/><circle cx="310" cy="340" r="115" fill="rgba(137,247,198,.26)" stroke="#89f7c6" stroke-width="14"/><circle cx="560" cy="340" r="115" fill="rgba(112,165,255,.25)" stroke="#70a5ff" stroke-width="14"/><path d="M200 500h500" stroke="rgba(255,255,255,.4)" stroke-width="9" stroke-linecap="round"/><path d="M260 500c30-76 70-110 120-110s90 34 120 110" fill="none" stroke="#89f7c6" stroke-width="13" stroke-linecap="round"/><path d="M468 500c30-76 70-110 120-110s90 34 120 110" fill="none" stroke="#70a5ff" stroke-width="13" stroke-linecap="round"/><text x="390" y="210" fill="#f7fbff" font-size="54" font-weight="800">t</text></g>
</svg>