<svg xmlns="http://www.w3.org/2000/svg" width="900" height="700" viewBox="0 0 900 700" role="img">
  <defs>
    <linearGradient id="bg" x1="0" y1="0" x2="1" y2="1"><stop offset="0" stop-color="#12233f"/><stop offset="1" stop-color="#0d6f52"/></linearGradient>
    <linearGradient id="accent" x1="0" y1="0" x2="1" y2="1"><stop offset="0" stop-color="#89f7c6"/><stop offset="1" stop-color="#70a5ff"/></linearGradient>
    <filter id="shadow" x="-20%" y="-20%" width="140%" height="140%"><feDropShadow dx="0" dy="24" stdDeviation="28" flood-color="#000" flood-opacity=".25"/></filter>
  </defs>
  <rect width="100%" height="100%" rx="42" fill="url(#bg)"/>
  <circle cx="144" cy="126" r="150" fill="#70a5ff" opacity=".18"/>
  <circle cx="756" cy="154" r="190" fill="#89f7c6" opacity=".16"/>
  <g filter="url(#shadow)"><rect x="92" y="98" width="716" height="504" rx="42" fill="rgba(255,255,255,.12)" stroke="rgba(255,255,255,.24)"/><path d="M230 455c-60-52-76-137-36-206 36-62 107-96 190-82 65 11 93 53 144 62 62 11 116-16 151 34 32 45 8 126-52 168-95 66-292 94-397 24Z" fill="rgba(137,247,198,.22)" stroke="#89f7c6" stroke-width="14"/><path d="M260 380h365" stroke="#70a5ff" stroke-width="18" stroke-linecap="round"/><path d="M290 315h290" stroke="rgba(255,255,255,.48)" stroke-width="14" stroke-linecap="round"/><circle cx="300" cy="255" r="34" fill="#70a5ff"/><text x="510" y="245" fill="#f7fbff" font-size="54" font-weight="800">78%</text></g>
</svg>