<svg xmlns="http://www.w3.org/2000/svg" width="900" height="700" viewBox="0 0 900 700" role="img">
  <defs>
    <linearGradient id="bg" x1="0" y1="0" x2="1" y2="1"><stop offset="0" stop-color="#12233f"/><stop offset="1" stop-color="#0d6f52"/></linearGradient>
    <linearGradient id="accent" x1="0" y1="0" x2="1" y2="1"><stop offset="0" stop-color="#89f7c6"/><stop offset="1" stop-color="#70a5ff"/></linearGradient>
    <filter id="shadow" x="-20%" y="-20%" width="140%" height="140%"><feDropShadow dx="0" dy="24" stdDeviation="28" flood-color="#000" flood-opacity=".25"/></filter>
  </defs>
  <rect width="100%" height="100%" rx="42" fill="url(#bg)"/>
  <circle cx="144" cy="126" r="150" fill="#70a5ff" opacity=".18"/>
  <circle cx="756" cy="154" r="190" fill="#89f7c6" opacity=".16"/>
  <g filter="url(#shadow)"><rect x="92" y="98" width="716" height="504" rx="42" fill="rgba(255,255,255,.12)" stroke="rgba(255,255,255,.24)"/><rect x="150" y="160" width="230" height="340" rx="28" fill="rgba(255,255,255,.1)"/><path d="M520 480c-80-50-110-130-76-222 24-64 70-95 126-98 88 26 127 102 103 197-16 63-70 112-153 123Z" fill="rgba(137,247,198,.24)" stroke="#89f7c6" stroke-width="14"/><circle cx="540" cy="295" r="20" fill="#70a5ff"/><circle cx="602" cy="350" r="18" fill="#70a5ff"/><rect x="190" y="214" width="152" height="22" rx="11" fill="#89f7c6"/><rect x="190" y="270" width="118" height="22" rx="11" fill="rgba(255,255,255,.45)"/><rect x="190" y="326" width="172" height="22" rx="11" fill="rgba(255,255,255,.35)"/></g>
</svg>