<svg xmlns="http://www.w3.org/2000/svg" viewBox="0 0 920 560" role="img" aria-labelledby="title desc">
  <title id="title">OneWay</title>
  <desc id="desc">One-Way ANOVA chart and analysis.</desc>
  <defs>
    <linearGradient id="bg" x1="0" y1="0" x2="920" y2="560" gradientUnits="userSpaceOnUse">
      <stop stop-color="#FFFFFF"/>
      <stop offset="1" stop-color="#F3F7FF"/>
    </linearGradient>
    <linearGradient id="accent" x1="0" y1="0" x2="1" y2="1">
      <stop stop-color="#0071E3"/>
      <stop offset="1" stop-color="#0071E3"/>
    </linearGradient>
    <filter id="shadow" x="-12%" y="-12%" width="124%" height="136%">
      <feDropShadow dx="0" dy="24" stdDeviation="24" flood-color="#102033" flood-opacity="0.13"/>
    </filter>
  </defs>
  <rect width="920" height="560" rx="42" fill="url(#bg)"/>
  <circle cx="774" cy="94" r="170" fill="#0071E3" opacity="0.14"/>
  <circle cx="134" cy="492" r="190" fill="#30D158" opacity="0.10"/>
  <g filter="url(#shadow)">
    <rect x="64" y="58" width="792" height="444" rx="36" fill="#fff" fill-opacity="0.82" stroke="#DFE6F1"/>
    <rect x="96" y="92" width="728" height="58" rx="24" fill="#F7F9FC" stroke="#E4EAF3"/>
    <circle cx="130" cy="121" r="8" fill="#FF5F57"/><circle cx="156" cy="121" r="8" fill="#FFBD2E"/><circle cx="182" cy="121" r="8" fill="#28C840"/>
    <text x="218" y="130" font-family="-apple-system, BlinkMacSystemFont, Segoe UI, sans-serif" font-size="22" font-weight="900" fill="#1D1D1F">OneWay</text>
    
    <rect x="96" y="184" width="728" height="244" rx="30" fill="#F8FAFD" stroke="#E4EAF3"/>
    <text x="130" y="236" font-family="-apple-system, BlinkMacSystemFont, Segoe UI, sans-serif" font-size="22" font-weight="900" fill="#1D1D1F">One-Way ANOVA</text>
    <line x1="150" y1="386" x2="760" y2="386" stroke="#CAD4E2" stroke-width="4"/>
    <g stroke="url(#accent)" stroke-width="16" stroke-linecap="round">
      <line x1="230" y1="354" x2="230" y2="274"/><line x1="230" y1="322" x2="230" y2="322"/>
      <line x1="380" y1="344" x2="380" y2="250"/>
      <line x1="530" y1="366" x2="530" y2="290"/>
      <line x1="680" y1="332" x2="680" y2="226"/>
    </g>
    <g fill="#fff" stroke="#0071E3" stroke-width="6">
      <rect x="198" y="302" width="64" height="54" rx="12"/><rect x="348" y="286" width="64" height="58" rx="12"/><rect x="498" y="316" width="64" height="50" rx="12"/><rect x="648" y="266" width="64" height="66" rx="12"/>
    </g>
    <text x="152" y="424" font-family="-apple-system, BlinkMacSystemFont, Segoe UI, sans-serif" font-size="18" font-weight="800" fill="#6E6E73">Assumption test • Post-hoc • Effect size • Visualization</text>

  </g>
</svg>
