<svg xmlns="http://www.w3.org/2000/svg" width="900" height="700" viewBox="0 0 900 700" role="img">
  <defs>
    <linearGradient id="bg" x1="0" y1="0" x2="1" y2="1"><stop offset="0" stop-color="#12233f"/><stop offset="1" stop-color="#0d6f52"/></linearGradient>
    <linearGradient id="accent" x1="0" y1="0" x2="1" y2="1"><stop offset="0" stop-color="#89f7c6"/><stop offset="1" stop-color="#70a5ff"/></linearGradient>
    <filter id="shadow" x="-20%" y="-20%" width="140%" height="140%"><feDropShadow dx="0" dy="24" stdDeviation="28" flood-color="#000" flood-opacity=".25"/></filter>
  </defs>
  <rect width="100%" height="100%" rx="42" fill="url(#bg)"/>
  <circle cx="144" cy="126" r="150" fill="#70a5ff" opacity=".18"/>
  <circle cx="756" cy="154" r="190" fill="#89f7c6" opacity=".16"/>
  <g filter="url(#shadow)"><rect x="92" y="98" width="716" height="504" rx="42" fill="rgba(255,255,255,.12)" stroke="rgba(255,255,255,.24)"/><g transform="translate(170 160)"><rect width="106" height="106" rx="18" fill="#89f7c6"/><rect x="126" width="106" height="106" rx="18" fill="#70a5ff"/><rect x="252" width="106" height="106" rx="18" fill="#89f7c6" opacity=".5"/><rect x="378" width="106" height="106" rx="18" fill="#70a5ff" opacity=".35"/><rect y="126" width="106" height="106" rx="18" fill="#70a5ff" opacity=".55"/><rect x="126" y="126" width="106" height="106" rx="18" fill="#89f7c6" opacity=".75"/><rect x="252" y="126" width="106" height="106" rx="18" fill="#70a5ff"/><rect x="378" y="126" width="106" height="106" rx="18" fill="#89f7c6" opacity=".45"/><rect y="252" width="106" height="106" rx="18" fill="#89f7c6" opacity=".35"/><rect x="126" y="252" width="106" height="106" rx="18" fill="#70a5ff" opacity=".45"/><rect x="252" y="252" width="106" height="106" rx="18" fill="#89f7c6"/><rect x="378" y="252" width="106" height="106" rx="18" fill="#70a5ff" opacity=".75"/></g></g>
</svg>