<svg xmlns="http://www.w3.org/2000/svg" width="900" height="700" viewBox="0 0 900 700" role="img">
  <defs>
    <linearGradient id="bg" x1="0" y1="0" x2="1" y2="1"><stop offset="0" stop-color="#12233f"/><stop offset="1" stop-color="#0d6f52"/></linearGradient>
    <linearGradient id="accent" x1="0" y1="0" x2="1" y2="1"><stop offset="0" stop-color="#89f7c6"/><stop offset="1" stop-color="#70a5ff"/></linearGradient>
    <filter id="shadow" x="-20%" y="-20%" width="140%" height="140%"><feDropShadow dx="0" dy="24" stdDeviation="28" flood-color="#000" flood-opacity=".25"/></filter>
  </defs>
  <rect width="100%" height="100%" rx="42" fill="url(#bg)"/>
  <circle cx="144" cy="126" r="150" fill="#70a5ff" opacity=".18"/>
  <circle cx="756" cy="154" r="190" fill="#89f7c6" opacity=".16"/>
  <g filter="url(#shadow)"><rect x="90" y="100" width="720" height="500" rx="40" fill="rgba(255,255,255,.12)" stroke="rgba(255,255,255,.24)"/><path d="M155 470c90-150 215-120 276-262 45 116 149 111 244 262" fill="none" stroke="#89f7c6" stroke-width="24" stroke-linecap="round"/><rect x="158" y="156" width="210" height="44" rx="22" fill="#70a5ff"/><rect x="160" y="245" width="170" height="24" rx="12" fill="rgba(255,255,255,.55)"/><rect x="160" y="295" width="240" height="24" rx="12" fill="rgba(255,255,255,.4)"/><circle cx="650" cy="235" r="70" fill="rgba(137,247,198,.22)" stroke="#89f7c6" stroke-width="14"/></g>
</svg>