<svg xmlns="http://www.w3.org/2000/svg" viewBox="0 0 1200 720" role="img" aria-labelledby="title desc">
  <title id="title">Ruminant Nutrition OS dashboard</title>
  <desc id="desc">Dashboard produk ransum ruminansia dengan panel nutrisi, biaya, bahan pakan, dan rekomendasi.</desc>
  <defs>
    <linearGradient id="bg" x1="0" y1="0" x2="1200" y2="720" gradientUnits="userSpaceOnUse">
      <stop stop-color="#F5FBFF"/>
      <stop offset="0.5" stop-color="#EEF7FF"/>
      <stop offset="1" stop-color="#F7F5FF"/>
    </linearGradient>
    <linearGradient id="blue" x1="194" y1="116" x2="931" y2="637" gradientUnits="userSpaceOnUse">
      <stop stop-color="#64D2FF"/>
      <stop offset="1" stop-color="#0071E3"/>
    </linearGradient>
    <linearGradient id="green" x1="0" y1="0" x2="1" y2="1">
      <stop stop-color="#30D158"/>
      <stop offset="1" stop-color="#0A8F48"/>
    </linearGradient>
    <filter id="s" x="-10%" y="-10%" width="120%" height="130%">
      <feDropShadow dx="0" dy="30" stdDeviation="28" flood-color="#113" flood-opacity="0.13"/>
    </filter>
  </defs>
  <rect width="1200" height="720" rx="36" fill="url(#bg)"/>
  <circle cx="922" cy="102" r="186" fill="#BF5AF2" opacity="0.13"/>
  <circle cx="252" cy="610" r="214" fill="#30D158" opacity="0.11"/>
  <g filter="url(#s)">
    <rect x="70" y="74" width="1060" height="572" rx="42" fill="#fff" fill-opacity="0.78" stroke="#DDE4EE"/>
    <rect x="104" y="110" width="994" height="76" rx="26" fill="#F7F9FC" stroke="#DFE6F1"/>
    <circle cx="148" cy="148" r="11" fill="#FF5F57"/>
    <circle cx="182" cy="148" r="11" fill="#FFBD2E"/>
    <circle cx="216" cy="148" r="11" fill="#28C840"/>
    <text x="258" y="155" font-family="-apple-system, BlinkMacSystemFont, Segoe UI, sans-serif" font-size="24" font-weight="800" fill="#6E6E73">Ruminant Nutrition OS</text>
    <rect x="920" y="124" width="144" height="48" rx="24" fill="#0071E3"/>
    <text x="961" y="155" font-family="-apple-system, BlinkMacSystemFont, Segoe UI, sans-serif" font-size="18" font-weight="800" fill="#fff">Export</text>
    <rect x="104" y="216" width="368" height="368" rx="34" fill="url(#blue)"/>
    <circle cx="390" cy="304" r="88" fill="#fff" opacity="0.16"/>
    <text x="142" y="288" font-family="-apple-system, BlinkMacSystemFont, Segoe UI, sans-serif" font-size="24" font-weight="800" fill="#EAF6FF">Formulation Match</text>
    <text x="142" y="392" font-family="-apple-system, BlinkMacSystemFont, Segoe UI, sans-serif" font-size="110" font-weight="900" fill="#fff">98.7%</text>
    <text x="142" y="438" font-family="-apple-system, BlinkMacSystemFont, Segoe UI, sans-serif" font-size="24" font-weight="700" fill="#DCF3FF">Nutrient target aligned</text>
    <rect x="142" y="488" width="224" height="26" rx="13" fill="#fff" opacity="0.28"/>
    <rect x="142" y="488" width="190" height="26" rx="13" fill="#fff"/>
    <rect x="500" y="216" width="272" height="176" rx="30" fill="#fff" stroke="#E2E7F0"/>
    <text x="532" y="264" font-family="-apple-system, BlinkMacSystemFont, Segoe UI, sans-serif" font-size="22" font-weight="900" fill="#1D1D1F">Ingredient Cost</text>
    <text x="532" y="324" font-family="-apple-system, BlinkMacSystemFont, Segoe UI, sans-serif" font-size="58" font-weight="900" fill="#1D1D1F">Rp 2.4k</text>
    <text x="532" y="358" font-family="-apple-system, BlinkMacSystemFont, Segoe UI, sans-serif" font-size="20" font-weight="700" fill="#6E6E73">per kg estimate</text>
    <rect x="800" y="216" width="298" height="176" rx="30" fill="#fff" stroke="#E2E7F0"/>
    <text x="832" y="264" font-family="-apple-system, BlinkMacSystemFont, Segoe UI, sans-serif" font-size="22" font-weight="900" fill="#1D1D1F">Mineral Check</text>
    <circle cx="868" cy="332" r="22" fill="url(#green)"/>
    <path d="M858 332l8 9 16-20" fill="none" stroke="#fff" stroke-width="7" stroke-linecap="round" stroke-linejoin="round"/>
    <text x="912" y="338" font-family="-apple-system, BlinkMacSystemFont, Segoe UI, sans-serif" font-size="25" font-weight="900" fill="#1D1D1F">Balanced</text>
    <rect x="500" y="418" width="598" height="166" rx="30" fill="#fff" stroke="#E2E7F0"/>
    <text x="532" y="468" font-family="-apple-system, BlinkMacSystemFont, Segoe UI, sans-serif" font-size="22" font-weight="900" fill="#1D1D1F">Ration Composition</text>
    <rect x="532" y="512" width="92" height="40" rx="20" fill="#F0F8FF"/><text x="555" y="538" font-family="-apple-system, BlinkMacSystemFont, Segoe UI, sans-serif" font-size="16" font-weight="800" fill="#0071E3">Corn</text>
    <rect x="642" y="512" width="150" height="40" rx="20" fill="#F1FFF5"/><text x="668" y="538" font-family="-apple-system, BlinkMacSystemFont, Segoe UI, sans-serif" font-size="16" font-weight="800" fill="#159A48">Forage</text>
    <rect x="810" y="512" width="116" height="40" rx="20" fill="#FFF7E8"/><text x="836" y="538" font-family="-apple-system, BlinkMacSystemFont, Segoe UI, sans-serif" font-size="16" font-weight="800" fill="#A86A00">Bran</text>
    <rect x="944" y="512" width="104" height="40" rx="20" fill="#F8F1FF"/><text x="968" y="538" font-family="-apple-system, BlinkMacSystemFont, Segoe UI, sans-serif" font-size="16" font-weight="800" fill="#8E43C6">Meal</text>
  </g>
</svg>
