<svg xmlns="http://www.w3.org/2000/svg" viewBox="0 0 240 240" role="img" aria-labelledby="title desc">
  <title id="title">Galuh Adi monogram</title>
  <desc id="desc">Premium glass monogram with GA letters.</desc>
  <defs>
    <linearGradient id="g" x1="28" y1="12" x2="220" y2="226" gradientUnits="userSpaceOnUse">
      <stop stop-color="#64D2FF"/>
      <stop offset="0.46" stop-color="#0071E3"/>
      <stop offset="1" stop-color="#BF5AF2"/>
    </linearGradient>
    <radialGradient id="h" cx="0" cy="0" r="1" gradientUnits="userSpaceOnUse" gradientTransform="translate(78 50) rotate(55) scale(190)">
      <stop stop-color="#FFFFFF" stop-opacity="0.82"/>
      <stop offset="0.42" stop-color="#FFFFFF" stop-opacity="0.18"/>
      <stop offset="1" stop-color="#FFFFFF" stop-opacity="0"/>
    </radialGradient>
    <filter id="shadow" x="-30%" y="-30%" width="160%" height="160%">
      <feDropShadow dx="0" dy="24" stdDeviation="24" flood-color="#0071E3" flood-opacity="0.24"/>
    </filter>
  </defs>
  <rect x="18" y="18" width="204" height="204" rx="58" fill="url(#g)" filter="url(#shadow)"/>
  <rect x="30" y="30" width="180" height="180" rx="48" fill="url(#h)"/>
  <path d="M64 158V82h51c19 0 33 11 33 28 0 11-6 20-15 24l22 24h-31l-18-21H91v21H64Zm27-43h22c6 0 10-3 10-8s-4-8-10-8H91v16Zm75 43-9-18h-31l12-23h8l-12-25-34 66H72l48-76h31l45 76h-30Z" fill="#fff"/>
</svg>
