<svg xmlns="http://www.w3.org/2000/svg" viewBox="0 0 920 560" role="img" aria-labelledby="title desc">
  <title id="title">ransumsapiperah</title>
  <desc id="desc">Dashboard ransum sapi perah.</desc>
  <defs>
    <linearGradient id="bg" x1="0" y1="0" x2="920" y2="560" gradientUnits="userSpaceOnUse">
      <stop stop-color="#FFFFFF"/>
      <stop offset="1" stop-color="#F3F7FF"/>
    </linearGradient>
    <linearGradient id="accent" x1="0" y1="0" x2="1" y2="1">
      <stop stop-color="#64D2FF"/>
      <stop offset="1" stop-color="#0071E3"/>
    </linearGradient>
    <filter id="shadow" x="-12%" y="-12%" width="124%" height="136%">
      <feDropShadow dx="0" dy="24" stdDeviation="24" flood-color="#102033" flood-opacity="0.13"/>
    </filter>
  </defs>
  <rect width="920" height="560" rx="42" fill="url(#bg)"/>
  <circle cx="774" cy="94" r="170" fill="#64D2FF" opacity="0.14"/>
  <circle cx="134" cy="492" r="190" fill="#30D158" opacity="0.10"/>
  <g filter="url(#shadow)">
    <rect x="64" y="58" width="792" height="444" rx="36" fill="#fff" fill-opacity="0.82" stroke="#DFE6F1"/>
    <rect x="96" y="92" width="728" height="58" rx="24" fill="#F7F9FC" stroke="#E4EAF3"/>
    <circle cx="130" cy="121" r="8" fill="#FF5F57"/><circle cx="156" cy="121" r="8" fill="#FFBD2E"/><circle cx="182" cy="121" r="8" fill="#28C840"/>
    <text x="218" y="130" font-family="-apple-system, BlinkMacSystemFont, Segoe UI, sans-serif" font-size="22" font-weight="900" fill="#1D1D1F">ransumsapiperah</text>
    
    <rect x="96" y="184" width="248" height="244" rx="30" fill="url(#accent)"/>
    <path d="M166 318c0-54 38-96 86-96s86 42 86 96-38 96-86 96-86-42-86-96Z" fill="#fff" opacity="0.14"/>
    <path d="M164 309c8-45 40-73 85-73 45 0 76 27 84 73" fill="none" stroke="#fff" stroke-width="20" stroke-linecap="round" opacity="0.88"/>
    <circle cx="218" cy="312" r="14" fill="#fff"/><circle cx="283" cy="312" r="14" fill="#fff"/>
    <path d="M224 356c18 14 38 14 55 0" fill="none" stroke="#fff" stroke-width="12" stroke-linecap="round"/>
    <text x="126" y="230" font-family="-apple-system, BlinkMacSystemFont, Segoe UI, sans-serif" font-size="22" font-weight="900" fill="#fff">Dairy Planner</text>
    <rect x="376" y="184" width="448" height="244" rx="30" fill="#F8FAFD" stroke="#E4EAF3"/>
    <text x="410" y="236" font-family="-apple-system, BlinkMacSystemFont, Segoe UI, sans-serif" font-size="22" font-weight="900" fill="#1D1D1F">Least-cost formulation</text>
    <rect x="410" y="278" width="338" height="22" rx="11" fill="#E8EEF8"/><rect x="410" y="278" width="272" height="22" rx="11" fill="#0071E3"/>
    <rect x="410" y="326" width="338" height="22" rx="11" fill="#E8EEF8"/><rect x="410" y="326" width="218" height="22" rx="11" fill="#30D158"/>
    <rect x="410" y="374" width="338" height="22" rx="11" fill="#E8EEF8"/><rect x="410" y="374" width="304" height="22" rx="11" fill="#BF5AF2"/>

  </g>
</svg>
